<?xml version="1.0" encoding="utf-8"?>
<!-- Generator: Adobe Illustrator 27.5.0, SVG Export Plug-In . SVG Version: 6.00 Build 0)  -->
<svg version="1.1" id="_x2018_ëîé_x5F_1" xmlns="http://www.w3.org/2000/svg" xmlns:xlink="http://www.w3.org/1999/xlink"
	 x="0px" y="0px" viewBox="0 0 3000 2000" style="enable-background:new 0 0 3000 2000;" xml:space="preserve">
<rect style="fill:#FFFFFF;" width="3000" height="2000"/>
<g>
	<g>
		<path style="fill:#DEEBE9;" d="M2352.211,1933.135c-192.927,30.36-391.69,17.71-797.818-14.059
			c-228.05-17.839-686.578,11.717-915.452,14.059c-166.86,1.708-302.139-154.893-302.139-345.963v-582.793V395.593
			c0-191.07,135.561-357.202,302.139-345.963c154.695,10.437,382.232,51.757,619.422,26.456
			c282.103-30.091,817.554-55.661,1093.849-26.456c166.16,17.563,302.139,154.893,302.139,345.963v1191.579
			C2654.351,1778.242,2517.524,1907.12,2352.211,1933.135z"/>
	</g>
	<g>
		<ellipse style="fill:#BED5DC;" cx="1520.164" cy="1655.945" rx="895.03" ry="114.655"/>
	</g>
	<rect x="1364.654" y="431.495" style="fill:#2F1A31;" width="499.369" height="1177.8"/>
	<rect x="1745.776" y="431.495" style="fill:#6F4975;" width="367.932" height="1177.8"/>
	<g>
		<path style="fill:#2F1A31;" d="M1817.858,985.372h248.182l0,0c0,6.292-5.101,11.392-11.392,11.392H1829.25
			C1822.958,996.764,1817.858,991.664,1817.858,985.372L1817.858,985.372z"/>
		<path style="fill:#2F1A31;" d="M1817.858,1022.913h248.182l0,0c0,6.292-5.101,11.392-11.392,11.392H1829.25
			C1822.958,1034.305,1817.858,1029.205,1817.858,1022.913L1817.858,1022.913z"/>
		<path style="fill:#2F1A31;" d="M1817.858,1060.454h248.182v0c0,6.292-5.101,11.392-11.392,11.392H1829.25
			C1822.958,1071.846,1817.858,1066.746,1817.858,1060.454L1817.858,1060.454z"/>
	</g>
	<g>
		<path style="fill:#2F1A31;" d="M1817.858,544.311h248.182l0,0c0,6.292-5.101,11.392-11.392,11.392H1829.25
			C1822.958,555.703,1817.858,550.603,1817.858,544.311L1817.858,544.311z"/>
		<path style="fill:#2F1A31;" d="M1817.858,581.852h248.182l0,0c0,6.292-5.101,11.392-11.392,11.392H1829.25
			C1822.958,593.244,1817.858,588.144,1817.858,581.852L1817.858,581.852z"/>
		<path style="fill:#2F1A31;" d="M1817.858,619.393h248.182l0,0c0,6.292-5.101,11.392-11.392,11.392H1829.25
			C1822.958,630.786,1817.858,625.685,1817.858,619.393L1817.858,619.393z"/>
	</g>
	<rect x="1357.007" y="431.495" style="fill:#8C6793;" width="15.295" height="1176.211"/>
	<rect x="1364.654" y="431.495" style="fill:#8C6793;" width="388.769" height="13.848"/>
	<rect x="1357.007" y="1595.447" style="fill:#8C6793;" width="404.064" height="13.848"/>
	<g>
		<rect x="1376.748" y="955.287" style="opacity:0.5;fill:#6F4975;" width="407.348" height="31.785"/>
		<rect x="1251.95" y="955.287" style="fill:#8C6793;" width="415.335" height="31.785"/>
	</g>
	<g>
		<rect x="1442.425" y="1391.149" style="opacity:0.5;fill:#6F4975;" width="341.672" height="172.839"/>
		<rect x="1382.591" y="1391.149" style="fill:#8C6793;" width="341.672" height="172.839"/>
	</g>
	<g>
		<rect x="1442.425" y="1204.84" style="opacity:0.5;fill:#6F4975;" width="341.672" height="172.839"/>
		<rect x="1382.591" y="1204.84" style="fill:#8C6793;" width="341.672" height="172.839"/>
	</g>
	<g>
		<rect x="1442.425" y="1018.531" style="opacity:0.5;fill:#6F4975;" width="341.672" height="172.839"/>
		<rect x="1382.591" y="1018.531" style="fill:#8C6793;" width="341.672" height="172.839"/>
	</g>
	<g>
		<path style="fill:#E28569;" d="M1389.161,955.286h245.988c5.15,0,9.722-3.275,11.347-8.128l51.119-152.663
			c2.574-7.688-3.189-15.622-11.347-15.622h-236.559c-10.781,0-20.35,6.855-23.752,17.014l-48.144,143.778
			C1375.239,947.352,1381.002,955.286,1389.161,955.286z"/>
		<path style="fill:#DEEBE9;" d="M1397.371,950.412h232.393c4.866,0,9.185-3.094,10.72-7.679l48.294-144.226
			c2.432-7.263-3.013-14.759-10.72-14.759h-223.485c-10.185,0-19.225,6.476-22.439,16.073l-45.483,135.832
			C1384.219,942.916,1389.663,950.412,1397.371,950.412z"/>
		<path style="fill:#E28569;" d="M1298.657,933.713h347.553l-10.939,21.573h-343.614c-3.996,0-7.235-3.239-7.235-7.234v-0.104
			C1284.422,940.086,1290.796,933.713,1298.657,933.713z"/>
	</g>
	<path style="fill:#2F1A31;" d="M886.25,1609.295h434.827v-1177.8H899.564c-7.353,0-13.313,5.961-13.313,13.313V1609.295z"/>
	<path style="fill:#8C6793;" d="M927.837,1609.295h402.813c8.84,0,16.007-7.167,16.007-16.007V447.502
		c0-8.84-7.167-16.007-16.007-16.007H927.837c-8.841,0-16.007,7.167-16.007,16.007v1145.786
		C911.83,1602.128,918.996,1609.295,927.837,1609.295z"/>
	<g>
		<path style="fill:#2F1A31;" d="M1023.517,544.311h248.182l0,0c0,6.292-5.1,11.392-11.392,11.392h-225.398
			C1028.618,555.703,1023.517,550.603,1023.517,544.311L1023.517,544.311z"/>
		<path style="fill:#2F1A31;" d="M1023.517,581.852h248.182l0,0c0,6.292-5.1,11.392-11.392,11.392h-225.398
			C1028.618,593.244,1023.517,588.144,1023.517,581.852L1023.517,581.852z"/>
		<path style="fill:#2F1A31;" d="M1023.517,619.393h248.182l0,0c0,6.292-5.1,11.392-11.392,11.392h-225.398
			C1028.618,630.786,1023.517,625.685,1023.517,619.393L1023.517,619.393z"/>
	</g>
	<g>
		<path style="fill:#F7B686;" d="M1523.517,888.097c0,0,37.658,3.856,47.975,16.476c10.317,12.62,19.087,32.952,13.412,34.705
			c-3.265,1.008-9.562-7.503-15.39-14.022c-4.302-4.813-8.92-8.063-8.92-8.063s19.581,22.516,13.133,23.254
			c-3.749,0.429-13.773-6.319-19.065-11.948c-3.81-4.052-7.286-5.872-7.286-5.872s20.076,19.807,10.79,18.404
			c-9.285-1.402-14.245-13.969-21.029-14.196c-1.165-0.039,11.569,10.253,8.992,13.962c-2.577,3.709-25.965-12.036-25.965-12.036
			L1523.517,888.097z"/>
		<g>
			<path style="fill:#2F1A31;" d="M1263.82,1613.968c0,0,1.072,20.553,15.171,25.979c14.099,5.426,54.639,9.573,39.901,23.203
				c-8.457,7.821-49.41,4.018-60.934,4.328c-11.526,0.31-22.211,5.615-30.983-1.854c-9.651-8.217-1.368-50.627-1.368-50.627
				s10.085,4.903,19.023,4.431C1257.51,1618.747,1263.82,1613.968,1263.82,1613.968z"/>
		</g>
		<g>
			<path style="fill:#79A39B;" d="M1364.963,1095.862c-2.692,42.68-7.786,98.048-17.207,165.793
				c-11.92,85.696-25.521,171.897-36.48,238.416c-2.427,14.947-4.758,28.91-6.897,41.646c-2.692,15.981-5.095,30.016-7.089,41.694
				c-3.845,22.325-22.109,39.075-44.266,40.565l-11.92,0.793c-23.959,1.61-42.127-7.258-42.127-45.251l0.12-37.802l0.144-41.646
				l0.409-124.891c0-0.024,0-0.024,0-0.048c0-0.024,0-0.024,0-0.048l0.481-142.531l18.624-138.589c0,0,5.695-2.572,14.851-6.2
				v-0.024C1271.505,1072.696,1368.52,1039.484,1364.963,1095.862z"/>
		</g>
		<g>
			<path style="fill:#2F1A31;" d="M1131.771,1617.523c0,0,1.072,20.553,15.171,25.979c14.099,5.426,54.639,9.573,39.901,23.203
				c-8.456,7.82-49.41,4.017-60.934,4.328c-11.526,0.31-22.211,5.615-30.983-1.854c-9.651-8.217-1.368-50.627-1.368-50.627
				s10.085,4.903,19.023,4.431C1125.461,1622.301,1131.771,1617.523,1131.771,1617.523z"/>
		</g>
		<g>
			<path style="fill:#79A39B;" d="M1233.608,1087.739v0.024c-2.475,44.05-7.594,103.383-17.879,177.448
				c-5.143,37.104-10.622,74.281-16.077,109.92c0,0.024,0,0.024,0,0.048c-6.897,45.227-13.746,87.979-19.802,124.891
				c-2.451,14.899-4.782,28.862-6.921,41.646c-2.932,17.447-5.527,32.707-7.69,45.251c-3.845,22.325-22.109,39.075-44.266,40.565
				l-11.92,0.793c-23.959,1.61-43.977-18.432-42.872-42.92l1.947-43.689l1.85-41.646l14.948-335.599l3.677-138.469l146.688-32.394
				C1235.29,993.608,1237.092,1025.426,1233.608,1087.739z"/>
		</g>
		<g>
			<path style="fill:#2F1A31;" d="M1199.685,1380.776l-1.8-0.022c0.018-1.554,1.739-155.861-5.884-182.976
				c-7.564-26.905-42.651-50.315-43.004-50.549l0.991-1.502c1.466,0.967,35.999,24.007,43.745,51.564
				C1201.427,1224.654,1199.76,1374.413,1199.685,1380.776z"/>
		</g>
		<g>
			<path style="fill:#F7B686;" d="M1209.355,708.508l9.277-27.75l2.699-8.079l15.876-47.502l2.089,47.251l1.25,28.361l0.396,8.978
				c0.269,6.094,4.276,7.375,9.154,12.671c1.976,2.145,14.621,15.156,0.27,21.032c-17.878,7.323-51.3-3.764-64.007-18.287
				C1186.458,725.163,1206.357,717.476,1209.355,708.508z"/>
		</g>
		<g>
			
				<ellipse transform="matrix(0.9766 -0.2149 0.2149 0.9766 -109.3089 280.3671)" style="fill:#F7B686;" cx="1234.787" cy="642.908" rx="45.447" ry="51.011"/>
		</g>
		<g>
			<path style="fill:#2F1A31;" d="M1283.617,608.503c0,0-27.821,24.828-24.152,38.8c3.669,13.972,2.741,19.443-13.509,26.895
				c-16.25,7.451-1.901,19.555-23.555,20.428c-21.654,0.873-48.185-22.847-48.177-61.839c0.004-21.74,13.474-35.963,13.474-35.963
				L1283.617,608.503z"/>
		</g>
		<g>
			<path style="fill:#F7B686;" d="M1273.51,646.686c-3.153-4.146-8.949-5.39-12.946-2.779c-3.997,2.611-4.682,8.089-1.529,12.236
				c3.153,4.146,8.949,5.39,12.946,2.779C1275.979,656.31,1276.663,650.832,1273.51,646.686z"/>
		</g>
		<g>
			<path style="fill:#2F1A31;" d="M1266.548,660.737c-2.196,0-5.979-0.874-8.832-6.148c-0.082-0.151-0.026-0.34,0.125-0.422
				c0.152-0.08,0.339-0.025,0.422,0.127c3.995,7.381,9.645,5.706,9.886,5.634c0.164-0.056,0.339,0.04,0.39,0.204
				c0.052,0.164-0.038,0.338-0.202,0.389C1268.316,660.528,1267.621,660.737,1266.548,660.737z"/>
		</g>
		<g>
			<path style="fill:#2F1A31;" d="M1364.965,1095.869c0,0-188.882-10.299-278.517,11.266l-1.334-25.506l125.684-37.144
				l101.474,2.489l31.172,6.638l21.998,33.907L1364.965,1095.869z"/>
		</g>
		<g>
			<path style="fill:#7CA1CE;" d="M1103.212,785.202c0,0,16.625-71.353,118.321-71.348
				c177.221,0.008,127.511,144.285,143.909,373.665c0,0-114.257-24.716-279.592,8.178c0,0-16.095-124.225,4.701-229.24
				C1096.041,838.726,1095.047,809.312,1103.212,785.202z"/>
		</g>
		<g>
			<path style="fill:#7CA1CE;" d="M990.161,923.763c16.625-122.797,156.737-192.147,156.737-192.147l29.879,154.023l-58.357,18.484
				c-30.008,9.505-42.296,45.438-24.102,71.083c23.236,32.752,36.813,76.665,12.816,68.578
				C1066.129,1029.965,981.849,977.694,990.161,923.763z"/>
		</g>
		<g>
			<path style="fill:#2F1A31;" d="M1080.59,1039.743c-4.94-90.122,11.04-182.374,11.202-183.294l1.227,0.214
				c-0.162,0.92-16.117,93.036-11.186,183.01L1080.59,1039.743z"/>
		</g>
		<path style="fill:#7CA1CE;" d="M1537.714,888.188c-8.663-6.215-60.043-26.285-90.484-37.915
			c-14.276-5.454-27.003-14.292-37.121-25.745c-21.001-23.771-46.716-48.994-69.04-70.025
			c-42.275-39.826-99.131-40.654-99.131-40.654l70.308,222.274c0,0,31.55,23.572,91.879,23.317
			C1594.795,964.336,1550.162,897.117,1537.714,888.188z"/>
		<g>
			<path style="fill:#D16B54;" d="M1208.284,576.96c0,0,55.484-27.154,83.776-6.492c20.332,14.849-0.597,50.853-23.817,65.483
				C1245.587,650.227,1208.284,576.96,1208.284,576.96z"/>
		</g>
		<g>
			<path style="fill:#E28569;" d="M1164.969,624.78c-0.631,14.667,9.092,27.64,23.406,30.901
				c18.281,4.165,45.597,5.482,72.189-11.774c45.915-29.795-1.644-83.694-37.889-82.664
				C1193.474,562.073,1166.665,585.38,1164.969,624.78z"/>
		</g>
		<ellipse style="fill:#D16B54;" cx="1210.204" cy="572.747" rx="5.083" ry="2.279"/>
		<g>
			<path style="fill:#D16B54;" d="M1251.867,649.589c-0.36,0-0.665-0.273-0.696-0.634c-0.056-0.609-5.767-61.336-41.226-75.568
				c-0.36-0.137-0.534-0.547-0.391-0.907c0.149-0.36,0.534-0.547,0.913-0.385c36.261,14.542,42.047,76.114,42.097,76.736
				c0.037,0.385-0.249,0.721-0.634,0.758C1251.905,649.589,1251.886,649.589,1251.867,649.589z"/>
		</g>
		<g>
			<path style="fill:#D16B54;" d="M1168.662,641.46c-0.385,0-0.696-0.298-0.702-0.684c-0.006-0.51-0.05-50.635,40.928-67.625
				c0.36-0.149,0.764,0.037,0.914,0.373c0.149,0.36-0.019,0.771-0.379,0.92c-40.114,16.63-40.065,65.823-40.058,66.308
				c0,0.398-0.311,0.709-0.696,0.709H1168.662z"/>
		</g>
		<g>
			<path style="fill:#D16B54;" d="M1209.156,572.741c-0.205,0-0.404-0.087-0.541-0.249c-4.344-5.32-11.571-3.505-11.64-3.455
				c-0.36,0.075-0.758-0.112-0.858-0.51c-0.099-0.373,0.124-0.758,0.497-0.858c0.336-0.062,8.184-2.076,13.081,3.927
				c0.249,0.298,0.205,0.746-0.099,0.994C1209.466,572.691,1209.311,572.741,1209.156,572.741z"/>
		</g>
		<g>
			<path style="fill:#D16B54;" d="M1211.784,572.741c-0.081,0-0.162-0.013-0.236-0.037c-0.367-0.137-0.553-0.534-0.423-0.895
				c0.037-0.099,3.791-10.167,14.971-11.198c0.348-0.112,0.727,0.249,0.758,0.634c0.037,0.385-0.249,0.721-0.634,0.758
				c-10.297,0.957-13.74,10.192-13.777,10.279C1212.344,572.567,1212.07,572.741,1211.784,572.741z"/>
		</g>
	</g>
	<path style="fill:#2F1A31;" d="M1351.619,558.398L1351.619,558.398c-2.975,0-5.388-2.412-5.388-5.388v-44.321
		c0-2.975,2.412-5.388,5.388-5.388l0,0c2.975,0,5.388,2.412,5.388,5.388v44.321C1357.007,555.985,1354.595,558.398,1351.619,558.398
		z"/>
	<path style="fill:#2F1A31;" d="M1351.619,1386.047L1351.619,1386.047c-2.975,0-5.388-2.412-5.388-5.387v-44.321
		c0-2.976,2.412-5.388,5.388-5.388l0,0c2.975,0,5.388,2.412,5.388,5.388v44.321
		C1357.007,1383.635,1354.595,1386.047,1351.619,1386.047z"/>
	<path style="fill:#DBEAFC;" d="M1697.304,1067.744h-184.688c-4.153,0-7.519-3.366-7.519-7.519v-11.224
		c0-4.153,3.366-7.519,7.519-7.519h184.688c4.153,0,7.519,3.366,7.519,7.519v11.224
		C1704.823,1064.377,1701.457,1067.744,1697.304,1067.744z"/>
	<g>
		
			<ellipse transform="matrix(0.2298 -0.9732 0.9732 0.2298 89.0144 2437.1743)" style="fill:#79A39B;" cx="1584.26" cy="1162.35" rx="8.411" ry="8.411"/>
		
			<ellipse transform="matrix(0.7071 -0.7071 0.7071 0.7071 -349.6743 1480.5114)" style="fill:#E28569;" cx="1612.298" cy="1162.35" rx="8.411" ry="8.411"/>
		
			<ellipse transform="matrix(0.7071 -0.7071 0.7071 0.7071 -341.462 1500.3374)" style="fill:#79A39B;" cx="1640.336" cy="1162.35" rx="8.411" ry="8.411"/>
		
			<ellipse transform="matrix(0.2298 -0.9732 0.9732 0.2298 153.8032 2519.0386)" style="fill:#E28569;" cx="1668.375" cy="1162.35" rx="8.411" ry="8.411"/>
		
			<ellipse transform="matrix(0.7071 -0.7071 0.7071 0.7071 -325.0377 1539.9893)" style="fill:#DBEAFC;" cx="1696.413" cy="1162.35" rx="8.411" ry="8.411"/>
	</g>
	<path style="fill:#DBEAFC;" d="M1697.304,1252.882h-184.688c-4.153,0-7.519-3.366-7.519-7.519v-11.224
		c0-4.153,3.366-7.519,7.519-7.519h184.688c4.153,0,7.519,3.366,7.519,7.519v11.224
		C1704.823,1249.516,1701.457,1252.882,1697.304,1252.882z"/>
	<g>
		
			<ellipse transform="matrix(0.7071 -0.7071 0.7071 0.7071 -488.7988 1514.911)" style="fill:#79A39B;" cx="1584.26" cy="1347.488" rx="8.411" ry="8.411"/>
		
			<ellipse transform="matrix(0.2298 -0.9732 0.9732 0.2298 -69.5718 2607.0681)" style="fill:#E28569;" cx="1612.298" cy="1347.488" rx="8.411" ry="8.411"/>
		
			<ellipse transform="matrix(0.2298 -0.9732 0.9732 0.2298 -47.9754 2634.3564)" style="fill:#79A39B;" cx="1640.336" cy="1347.488" rx="8.411" ry="8.411"/>
		
			<ellipse transform="matrix(0.7071 -0.7071 0.7071 0.7071 -464.1622 1574.389)" style="fill:#E28569;" cx="1668.375" cy="1347.488" rx="8.411" ry="8.411"/>
		
			<ellipse transform="matrix(0.2298 -0.9732 0.9732 0.2298 -4.7827 2688.9326)" style="fill:#DBEAFC;" cx="1696.413" cy="1347.488" rx="8.411" ry="8.411"/>
	</g>
	<path style="fill:#DBEAFC;" d="M1697.304,1438.02h-184.688c-4.153,0-7.519-3.366-7.519-7.519v-11.224
		c0-4.153,3.366-7.519,7.519-7.519h184.688c4.153,0,7.519,3.366,7.519,7.519v11.224
		C1704.823,1434.654,1701.457,1438.02,1697.304,1438.02z"/>
	<g>
		
			<ellipse transform="matrix(0.2298 -0.9732 0.9732 0.2298 -271.3564 2722.3779)" style="fill:#79A39B;" cx="1584.26" cy="1532.626" rx="8.411" ry="8.411"/>
		
			<ellipse transform="matrix(0.7071 -0.7071 0.7071 0.7071 -611.499 1588.9628)" style="fill:#E28569;" cx="1612.298" cy="1532.626" rx="8.411" ry="8.411"/>
		
			<ellipse transform="matrix(0.7071 -0.7071 0.7071 0.7071 -603.2868 1608.7887)" style="fill:#79A39B;" cx="1640.336" cy="1532.626" rx="8.411" ry="8.411"/>
		
			<ellipse transform="matrix(0.2298 -0.9732 0.9732 0.2298 -206.5675 2804.2422)" style="fill:#E28569;" cx="1668.375" cy="1532.626" rx="8.411" ry="8.411"/>
		
			<ellipse transform="matrix(0.7071 -0.7071 0.7071 0.7071 -586.8624 1648.4407)" style="fill:#DBEAFC;" cx="1696.413" cy="1532.626" rx="8.411" ry="8.411"/>
	</g>
	<g>
		<path style="fill:#DBEAFC;" d="M1497.636,758.515h-9.023c-7.892,0-14.318-6.426-14.318-14.331v-38.306h2.809v38.306
			c0,6.351,5.164,11.522,11.509,11.522h9.023V758.515z"/>
	</g>
	<g>
		<g>
			<rect x="1442.425" y="632.797" style="opacity:0.5;fill:#6F4975;" width="341.672" height="105.374"/>
			<rect x="1382.591" y="632.797" style="fill:#8C6793;" width="341.672" height="105.374"/>
		</g>
		<g>
			<path style="fill:#2F1A31;" d="M1426.882,663.561h-15.541c-0.63,0-1.141-0.511-1.141-1.141v-15.541
				c0-0.63,0.511-1.141,1.141-1.141h15.541c0.63,0,1.141,0.511,1.141,1.141v15.541
				C1428.023,663.05,1427.512,663.561,1426.882,663.561z"/>
			<path style="fill:#DBEAFC;" d="M1417.748,663.561h-15.098c-0.753,0-1.363-0.61-1.363-1.363V647.1c0-0.753,0.61-1.363,1.363-1.363
				h15.098c0.753,0,1.363,0.61,1.363,1.363v15.098C1419.111,662.951,1418.501,663.561,1417.748,663.561z"/>
		</g>
		<g>
			<path style="fill:#2F1A31;" d="M1494.435,663.561h-15.541c-0.63,0-1.141-0.511-1.141-1.141v-15.541
				c0-0.63,0.511-1.141,1.141-1.141h15.541c0.63,0,1.141,0.511,1.141,1.141v15.541
				C1495.576,663.05,1495.065,663.561,1494.435,663.561z"/>
			<path style="fill:#DBEAFC;" d="M1485.301,663.561h-15.098c-0.753,0-1.363-0.61-1.363-1.363V647.1c0-0.753,0.61-1.363,1.363-1.363
				h15.098c0.753,0,1.363,0.61,1.363,1.363v15.098C1486.664,662.951,1486.054,663.561,1485.301,663.561z"/>
		</g>
		<g>
			<path style="fill:#2F1A31;" d="M1561.988,663.561h-15.541c-0.63,0-1.141-0.511-1.141-1.141v-15.541
				c0-0.63,0.511-1.141,1.141-1.141h15.541c0.63,0,1.141,0.511,1.141,1.141v15.541
				C1563.129,663.05,1562.618,663.561,1561.988,663.561z"/>
			<path style="fill:#DBEAFC;" d="M1552.854,663.561h-15.097c-0.753,0-1.363-0.61-1.363-1.363V647.1c0-0.753,0.61-1.363,1.363-1.363
				h15.097c0.753,0,1.363,0.61,1.363,1.363v15.098C1554.217,662.951,1553.607,663.561,1552.854,663.561z"/>
		</g>
		<g>
			<path style="fill:#2F1A31;" d="M1629.541,663.561h-15.541c-0.63,0-1.141-0.511-1.141-1.141v-15.541
				c0-0.63,0.511-1.141,1.141-1.141h15.541c0.63,0,1.141,0.511,1.141,1.141v15.541
				C1630.682,663.05,1630.171,663.561,1629.541,663.561z"/>
			<path style="fill:#DBEAFC;" d="M1620.407,663.561h-15.098c-0.753,0-1.363-0.61-1.363-1.363V647.1c0-0.753,0.61-1.363,1.363-1.363
				h15.098c0.753,0,1.363,0.61,1.363,1.363v15.098C1621.77,662.951,1621.16,663.561,1620.407,663.561z"/>
		</g>
		<g>
			<path style="fill:#2F1A31;" d="M1697.093,663.561h-15.541c-0.63,0-1.141-0.511-1.141-1.141v-15.541
				c0-0.63,0.511-1.141,1.141-1.141h15.541c0.63,0,1.141,0.511,1.141,1.141v15.541
				C1698.235,663.05,1697.724,663.561,1697.093,663.561z"/>
			<path style="fill:#DBEAFC;" d="M1687.96,663.561h-15.098c-0.753,0-1.363-0.61-1.363-1.363V647.1c0-0.753,0.61-1.363,1.363-1.363
				h15.098c0.753,0,1.363,0.61,1.363,1.363v15.098C1689.323,662.951,1688.713,663.561,1687.96,663.561z"/>
		</g>
		<g>
			<path style="fill:#2F1A31;" d="M1426.882,714.789h-15.541c-0.63,0-1.141-0.511-1.141-1.141v-15.541
				c0-0.63,0.511-1.141,1.141-1.141h15.541c0.63,0,1.141,0.511,1.141,1.141v15.541
				C1428.023,714.278,1427.512,714.789,1426.882,714.789z"/>
			<path style="fill:#DBEAFC;" d="M1417.748,714.789h-15.098c-0.753,0-1.363-0.61-1.363-1.363v-15.097
				c0-0.753,0.61-1.363,1.363-1.363h15.098c0.753,0,1.363,0.61,1.363,1.363v15.097
				C1419.111,714.179,1418.501,714.789,1417.748,714.789z"/>
		</g>
		<g>
			<path style="fill:#2F1A31;" d="M1494.435,714.789h-15.541c-0.63,0-1.141-0.511-1.141-1.141v-15.541
				c0-0.63,0.511-1.141,1.141-1.141h15.541c0.63,0,1.141,0.511,1.141,1.141v15.541
				C1495.576,714.278,1495.065,714.789,1494.435,714.789z"/>
			<path style="fill:#DBEAFC;" d="M1485.301,714.789h-15.098c-0.753,0-1.363-0.61-1.363-1.363v-15.097
				c0-0.753,0.61-1.363,1.363-1.363h15.098c0.753,0,1.363,0.61,1.363,1.363v15.097
				C1486.664,714.179,1486.054,714.789,1485.301,714.789z"/>
		</g>
		<g>
			<path style="fill:#2F1A31;" d="M1561.988,714.789h-15.541c-0.63,0-1.141-0.511-1.141-1.141v-15.541
				c0-0.63,0.511-1.141,1.141-1.141h15.541c0.63,0,1.141,0.511,1.141,1.141v15.541
				C1563.129,714.278,1562.618,714.789,1561.988,714.789z"/>
			<path style="fill:#DBEAFC;" d="M1552.854,714.789h-15.097c-0.753,0-1.363-0.61-1.363-1.363v-15.097
				c0-0.753,0.61-1.363,1.363-1.363h15.097c0.753,0,1.363,0.61,1.363,1.363v15.097
				C1554.217,714.179,1553.607,714.789,1552.854,714.789z"/>
		</g>
		<g>
			<path style="fill:#2F1A31;" d="M1629.541,714.789h-15.541c-0.63,0-1.141-0.511-1.141-1.141v-15.541
				c0-0.63,0.511-1.141,1.141-1.141h15.541c0.63,0,1.141,0.511,1.141,1.141v15.541
				C1630.682,714.278,1630.171,714.789,1629.541,714.789z"/>
			<path style="fill:#DBEAFC;" d="M1620.407,714.789h-15.098c-0.753,0-1.363-0.61-1.363-1.363v-15.097
				c0-0.753,0.61-1.363,1.363-1.363h15.098c0.753,0,1.363,0.61,1.363,1.363v15.097
				C1621.77,714.179,1621.16,714.789,1620.407,714.789z"/>
		</g>
		<g>
			<path style="fill:#2F1A31;" d="M1697.093,714.789h-15.541c-0.63,0-1.141-0.511-1.141-1.141v-15.541
				c0-0.63,0.511-1.141,1.141-1.141h15.541c0.63,0,1.141,0.511,1.141,1.141v15.541
				C1698.235,714.278,1697.724,714.789,1697.093,714.789z"/>
			<path style="fill:#DBEAFC;" d="M1687.96,714.789h-15.098c-0.753,0-1.363-0.61-1.363-1.363v-15.097
				c0-0.753,0.61-1.363,1.363-1.363h15.098c0.753,0,1.363,0.61,1.363,1.363v15.097
				C1689.323,714.179,1688.713,714.789,1687.96,714.789z"/>
		</g>
		<g>
			<path style="fill:#DBEAFC;" d="M1745.778,758.515h-339.693c-7.283,0-13.212-5.929-13.212-13.224v-78.836
				c0-7.283,5.929-13.212,13.212-13.212h4.114v2.809h-4.114c-5.736,0-10.403,4.661-10.403,10.403v78.836
				c0,5.742,4.667,10.415,10.403,10.415h339.693V758.515z"/>
		</g>
		<g>
			<path style="fill:#DBEAFC;" d="M1745.778,758.515h-275.654c-7.289,0-13.218-5.929-13.218-13.224v-78.836
				c0-7.283,5.929-13.212,13.218-13.212h4.108v2.809h-4.108c-5.742,0-10.409,4.661-10.409,10.403v78.836
				c0,5.742,4.667,10.415,10.409,10.415h275.654V758.515z"/>
		</g>
		<g>
			<path style="fill:#DBEAFC;" d="M1742.031,758.515h-204.604c-7.283,0-13.212-5.929-13.212-13.224v-78.836
				c0-7.283,5.929-13.212,13.212-13.212h4.114v2.809h-4.114c-5.736,0-10.403,4.661-10.403,10.403v78.836
				c0,5.742,4.667,10.415,10.403,10.415h204.604V758.515z"/>
		</g>
		<g>
			<path style="fill:#DBEAFC;" d="M1745.778,758.515h-141.043c-7.283,0-13.212-5.929-13.212-13.224v-78.836
				c0-7.283,5.929-13.212,13.212-13.212h4.114v2.809h-4.114c-5.736,0-10.403,4.661-10.403,10.403v78.836
				c0,5.742,4.667,10.415,10.403,10.415h141.043V758.515z"/>
		</g>
		<g>
			<path style="fill:#DBEAFC;" d="M1745.778,758.515h-68.129c-7.283,0-13.212-5.929-13.212-13.224v-78.836
				c0-7.283,5.929-13.212,13.212-13.212h4.114v2.809h-4.114c-5.736,0-10.403,4.661-10.403,10.403v78.836
				c0,5.742,4.667,10.415,10.403,10.415h68.129V758.515z"/>
		</g>
		<g>
			<path style="fill:#DBEAFC;" d="M1432.135,758.515h-9.023c-7.892,0-14.318-6.426-14.318-14.331v-38.306h2.809v38.306
				c0,6.351,5.164,11.522,11.509,11.522h9.023V758.515z"/>
		</g>
		<g>
			<path style="fill:#DBEAFC;" d="M1565.186,758.515h-9.023c-7.892,0-14.318-6.426-14.318-14.331v-38.306h2.809v38.306
				c0,6.351,5.164,11.522,11.509,11.522h9.023V758.515z"/>
		</g>
		<g>
			<path style="fill:#DBEAFC;" d="M1634.794,758.515h-9.023c-7.892,0-14.318-6.426-14.318-14.331v-38.306h2.809v38.306
				c0,6.351,5.164,11.522,11.509,11.522h9.023V758.515z"/>
		</g>
		<g>
			<path style="fill:#DBEAFC;" d="M1702.345,758.515h-9.017c-7.899,0-14.324-6.426-14.324-14.331v-38.306h2.809v38.306
				c0,6.351,5.164,11.522,11.515,11.522h9.017V758.515z"/>
		</g>
	</g>
	<g>
		<g>
			<rect x="1442.425" y="486.721" style="opacity:0.5;fill:#6F4975;" width="341.672" height="105.374"/>
			<rect x="1382.591" y="486.721" style="fill:#8C6793;" width="341.672" height="105.374"/>
		</g>
		<g>
			<path style="fill:#2F1A31;" d="M1426.882,517.485h-15.541c-0.63,0-1.141-0.511-1.141-1.141v-15.541
				c0-0.63,0.511-1.141,1.141-1.141h15.541c0.63,0,1.141,0.511,1.141,1.141v15.541
				C1428.023,516.974,1427.512,517.485,1426.882,517.485z"/>
			<path style="fill:#DBEAFC;" d="M1417.748,517.485h-15.098c-0.753,0-1.363-0.61-1.363-1.363v-15.097
				c0-0.753,0.61-1.363,1.363-1.363h15.098c0.753,0,1.363,0.61,1.363,1.363v15.097
				C1419.111,516.875,1418.501,517.485,1417.748,517.485z"/>
		</g>
		<g>
			<path style="fill:#2F1A31;" d="M1494.435,517.485h-15.541c-0.63,0-1.141-0.511-1.141-1.141v-15.541
				c0-0.63,0.511-1.141,1.141-1.141h15.541c0.63,0,1.141,0.511,1.141,1.141v15.541
				C1495.576,516.974,1495.065,517.485,1494.435,517.485z"/>
			<path style="fill:#DBEAFC;" d="M1485.301,517.485h-15.098c-0.753,0-1.363-0.61-1.363-1.363v-15.097
				c0-0.753,0.61-1.363,1.363-1.363h15.098c0.753,0,1.363,0.61,1.363,1.363v15.097
				C1486.664,516.875,1486.054,517.485,1485.301,517.485z"/>
		</g>
		<g>
			<path style="fill:#2F1A31;" d="M1561.988,517.485h-15.541c-0.63,0-1.141-0.511-1.141-1.141v-15.541
				c0-0.63,0.511-1.141,1.141-1.141h15.541c0.63,0,1.141,0.511,1.141,1.141v15.541
				C1563.129,516.974,1562.618,517.485,1561.988,517.485z"/>
			<path style="fill:#DBEAFC;" d="M1552.854,517.485h-15.097c-0.753,0-1.363-0.61-1.363-1.363v-15.097
				c0-0.753,0.61-1.363,1.363-1.363h15.097c0.753,0,1.363,0.61,1.363,1.363v15.097
				C1554.217,516.875,1553.607,517.485,1552.854,517.485z"/>
		</g>
		<g>
			<path style="fill:#2F1A31;" d="M1629.541,517.485h-15.541c-0.63,0-1.141-0.511-1.141-1.141v-15.541
				c0-0.63,0.511-1.141,1.141-1.141h15.541c0.63,0,1.141,0.511,1.141,1.141v15.541
				C1630.682,516.974,1630.171,517.485,1629.541,517.485z"/>
			<path style="fill:#DBEAFC;" d="M1620.407,517.485h-15.098c-0.753,0-1.363-0.61-1.363-1.363v-15.097
				c0-0.753,0.61-1.363,1.363-1.363h15.098c0.753,0,1.363,0.61,1.363,1.363v15.097
				C1621.77,516.875,1621.16,517.485,1620.407,517.485z"/>
		</g>
		<g>
			<path style="fill:#2F1A31;" d="M1697.093,517.485h-15.541c-0.63,0-1.141-0.511-1.141-1.141v-15.541
				c0-0.63,0.511-1.141,1.141-1.141h15.541c0.63,0,1.141,0.511,1.141,1.141v15.541
				C1698.235,516.974,1697.724,517.485,1697.093,517.485z"/>
			<path style="fill:#DBEAFC;" d="M1687.96,517.485h-15.098c-0.753,0-1.363-0.61-1.363-1.363v-15.097
				c0-0.753,0.61-1.363,1.363-1.363h15.098c0.753,0,1.363,0.61,1.363,1.363v15.097
				C1689.323,516.875,1688.713,517.485,1687.96,517.485z"/>
		</g>
		<g>
			<path style="fill:#2F1A31;" d="M1426.882,568.713h-15.541c-0.63,0-1.141-0.511-1.141-1.141v-15.541
				c0-0.63,0.511-1.141,1.141-1.141h15.541c0.63,0,1.141,0.511,1.141,1.141v15.541
				C1428.023,568.202,1427.512,568.713,1426.882,568.713z"/>
			<path style="fill:#DBEAFC;" d="M1417.748,568.713h-15.098c-0.753,0-1.363-0.61-1.363-1.363v-15.098
				c0-0.753,0.61-1.363,1.363-1.363h15.098c0.753,0,1.363,0.61,1.363,1.363v15.098
				C1419.111,568.103,1418.501,568.713,1417.748,568.713z"/>
		</g>
		<g>
			<path style="fill:#2F1A31;" d="M1494.435,568.713h-15.541c-0.63,0-1.141-0.511-1.141-1.141v-15.541
				c0-0.63,0.511-1.141,1.141-1.141h15.541c0.63,0,1.141,0.511,1.141,1.141v15.541
				C1495.576,568.202,1495.065,568.713,1494.435,568.713z"/>
			<path style="fill:#DBEAFC;" d="M1485.301,568.713h-15.098c-0.753,0-1.363-0.61-1.363-1.363v-15.098
				c0-0.753,0.61-1.363,1.363-1.363h15.098c0.753,0,1.363,0.61,1.363,1.363v15.098
				C1486.664,568.103,1486.054,568.713,1485.301,568.713z"/>
		</g>
		<g>
			<path style="fill:#2F1A31;" d="M1561.988,568.713h-15.541c-0.63,0-1.141-0.511-1.141-1.141v-15.541
				c0-0.63,0.511-1.141,1.141-1.141h15.541c0.63,0,1.141,0.511,1.141,1.141v15.541
				C1563.129,568.202,1562.618,568.713,1561.988,568.713z"/>
			<path style="fill:#DBEAFC;" d="M1552.854,568.713h-15.097c-0.753,0-1.363-0.61-1.363-1.363v-15.098
				c0-0.753,0.61-1.363,1.363-1.363h15.097c0.753,0,1.363,0.61,1.363,1.363v15.098
				C1554.217,568.103,1553.607,568.713,1552.854,568.713z"/>
		</g>
		<g>
			<path style="fill:#2F1A31;" d="M1629.541,568.713h-15.541c-0.63,0-1.141-0.511-1.141-1.141v-15.541
				c0-0.63,0.511-1.141,1.141-1.141h15.541c0.63,0,1.141,0.511,1.141,1.141v15.541
				C1630.682,568.202,1630.171,568.713,1629.541,568.713z"/>
			<path style="fill:#DBEAFC;" d="M1620.407,568.713h-15.098c-0.753,0-1.363-0.61-1.363-1.363v-15.098
				c0-0.753,0.61-1.363,1.363-1.363h15.098c0.753,0,1.363,0.61,1.363,1.363v15.098
				C1621.77,568.103,1621.16,568.713,1620.407,568.713z"/>
		</g>
		<g>
			<path style="fill:#2F1A31;" d="M1697.093,568.713h-15.541c-0.63,0-1.141-0.511-1.141-1.141v-15.541
				c0-0.63,0.511-1.141,1.141-1.141h15.541c0.63,0,1.141,0.511,1.141,1.141v15.541
				C1698.235,568.202,1697.724,568.713,1697.093,568.713z"/>
			<path style="fill:#DBEAFC;" d="M1687.96,568.713h-15.098c-0.753,0-1.363-0.61-1.363-1.363v-15.098
				c0-0.753,0.61-1.363,1.363-1.363h15.098c0.753,0,1.363,0.61,1.363,1.363v15.098
				C1689.323,568.103,1688.713,568.713,1687.96,568.713z"/>
		</g>
		<g>
			<path style="fill:#DBEAFC;" d="M1745.778,612.439h-339.693c-7.283,0-13.212-5.929-13.212-13.224v-78.836
				c0-7.283,5.929-13.212,13.212-13.212h4.114v2.809h-4.114c-5.736,0-10.403,4.661-10.403,10.403v78.836
				c0,5.742,4.667,10.415,10.403,10.415h339.693V612.439z"/>
		</g>
		<g>
			<path style="fill:#DBEAFC;" d="M1745.778,612.439h-275.654c-7.289,0-13.218-5.929-13.218-13.224v-78.836
				c0-7.283,5.929-13.212,13.218-13.212h4.108v2.809h-4.108c-5.742,0-10.409,4.661-10.409,10.403v78.836
				c0,5.742,4.667,10.415,10.409,10.415h275.654V612.439z"/>
		</g>
		<g>
			<path style="fill:#DBEAFC;" d="M1742.031,612.439h-204.604c-7.283,0-13.212-5.929-13.212-13.224v-78.836
				c0-7.283,5.929-13.212,13.212-13.212h4.114v2.809h-4.114c-5.736,0-10.403,4.661-10.403,10.403v78.836
				c0,5.742,4.667,10.415,10.403,10.415h204.604V612.439z"/>
		</g>
		<g>
			<path style="fill:#DBEAFC;" d="M1745.778,612.439h-141.043c-7.283,0-13.212-5.929-13.212-13.224v-78.836
				c0-7.283,5.929-13.212,13.212-13.212h4.114v2.809h-4.114c-5.736,0-10.403,4.661-10.403,10.403v78.836
				c0,5.742,4.667,10.415,10.403,10.415h141.043V612.439z"/>
		</g>
		<g>
			<path style="fill:#DBEAFC;" d="M1745.778,612.439h-68.129c-7.283,0-13.212-5.929-13.212-13.224v-78.836
				c0-7.283,5.929-13.212,13.212-13.212h4.114v2.809h-4.114c-5.736,0-10.403,4.661-10.403,10.403v78.836
				c0,5.742,4.667,10.415,10.403,10.415h68.129V612.439z"/>
		</g>
		<g>
			<path style="fill:#DBEAFC;" d="M1432.135,612.439h-9.023c-7.892,0-14.318-6.426-14.318-14.318v-38.318h2.809v38.318
				c0,6.351,5.164,11.509,11.509,11.509h9.023V612.439z"/>
		</g>
		<g>
			<path style="fill:#DBEAFC;" d="M1565.186,612.439h-9.023c-7.892,0-14.318-6.426-14.318-14.318v-38.318h2.809v38.318
				c0,6.351,5.164,11.509,11.509,11.509h9.023V612.439z"/>
		</g>
		<g>
			<path style="fill:#DBEAFC;" d="M1634.794,612.439h-9.023c-7.892,0-14.318-6.426-14.318-14.318v-38.318h2.809v38.318
				c0,6.351,5.164,11.509,11.509,11.509h9.023V612.439z"/>
		</g>
		<g>
			<path style="fill:#DBEAFC;" d="M1702.345,612.439h-9.017c-7.899,0-14.324-6.426-14.324-14.318v-38.318h2.809v38.318
				c0,6.351,5.164,11.509,11.515,11.509h9.017V612.439z"/>
		</g>
	</g>
	<g>
		<g>
			<path style="fill:#C4D7D4;" d="M2336.404,945.309c-3.468,0-6.83-1.367-9.309-3.803c-2.604-2.573-4.045-6.14-3.946-9.806
				l1.044-38.256c0.075-2.685,1.193-5.183,3.151-7.035c1.958-1.84,4.499-2.747,7.202-2.722l109.908,3.468
				c5.928,0.174,10.571,4.971,10.571,10.9v31.681c0,5.891-4.611,10.701-10.496,10.95l0,0l-107.566,4.611
				C2336.776,945.309,2336.59,945.309,2336.404,945.309z M2334.216,887.291c-1.641,0-3.2,0.609-4.4,1.74
				c-1.255,1.181-1.97,2.784-2.02,4.512l-1.044,38.256c-0.075,2.697,0.944,5.232,2.871,7.134c1.933,1.902,4.394,2.946,7.19,2.759
				l107.566-4.611c3.946-0.174,7.041-3.393,7.041-7.345v-31.681c0-3.965-3.107-7.171-7.078-7.296l-109.908-3.468
				C2334.359,887.291,2334.291,887.291,2334.216,887.291z M2444.454,938.883h0.043H2444.454z"/>
		</g>
		<path style="opacity:0.4;fill:#C4D7D4;" d="M2254.28,819.692l107.568-4.612c6.634-0.284,12.118,5.115,11.937,11.752l-1.042,38.252
			c-0.124,4.561-3.933,8.152-8.494,8.008l-109.91-3.467c-4.917-0.155-8.824-4.186-8.824-9.107v-31.677
			C2245.515,823.936,2249.38,819.902,2254.28,819.692z"/>
		<path style="opacity:0.4;fill:#C4D7D4;" d="M2299.431,749.281L2407,744.668c6.634-0.284,12.118,5.115,11.937,11.752l-1.042,38.252
			c-0.124,4.561-3.933,8.152-8.493,8.008l-109.91-3.467c-4.917-0.155-8.823-4.186-8.823-9.106V758.43
			C2290.667,753.525,2294.531,749.491,2299.431,749.281z"/>
	</g>
	<g>
		<g>
			<path style="fill:#C4D7D4;" d="M2168.415,447.147c-3.461,0-6.823-1.367-9.303-3.803c-2.61-2.573-4.052-6.152-3.952-9.819
				l1.044-38.244c0.075-2.685,1.193-5.183,3.145-7.035c1.964-1.852,4.493-2.809,7.203-2.734l109.915,3.468
				c5.928,0.199,10.564,4.984,10.564,10.913v31.681c0,5.891-4.605,10.701-10.49,10.95l0,0l-107.565,4.611
				C2168.788,447.147,2168.602,447.147,2168.415,447.147z M2166.24,389.117c-1.647,0-3.213,0.621-4.418,1.752
				c-1.249,1.181-1.964,2.784-2.013,4.512l-1.044,38.244c-0.074,2.71,0.951,5.245,2.877,7.147c1.933,1.902,4.412,2.933,7.184,2.759
				l107.566-4.611c3.94-0.174,7.035-3.393,7.035-7.345v-31.681c0-3.965-3.107-7.184-7.078-7.308l-109.908-3.468
				C2166.371,389.117,2166.308,389.117,2166.24,389.117z M2276.465,440.722h0.043H2276.465z"/>
		</g>
		<g>
			<path style="fill:#C4D7D4;" d="M2168.415,304.812c-3.468,0-6.83-1.367-9.309-3.803c-2.604-2.573-4.045-6.14-3.946-9.806
				l1.044-38.256c0.075-2.697,1.193-5.195,3.151-7.035c1.958-1.839,4.586-2.697,7.196-2.722l109.915,3.468
				c5.922,0.174,10.564,4.972,10.564,10.9v31.681c0,5.891-4.605,10.701-10.49,10.95l0,0l-107.565,4.611
				C2168.788,304.812,2168.602,304.812,2168.415,304.812z M2166.221,246.794c-1.641,0-3.194,0.609-4.394,1.74
				c-1.255,1.181-1.97,2.784-2.02,4.512l-1.044,38.256c-0.074,2.697,0.945,5.233,2.871,7.134c1.933,1.889,4.419,3.095,7.19,2.759
				l107.566-4.611c3.94-0.174,7.035-3.393,7.035-7.345v-31.681c0-3.965-3.107-7.171-7.072-7.296l-109.915-3.468
				C2166.364,246.794,2166.296,246.794,2166.221,246.794z M2276.465,298.386h0.043H2276.465z"/>
		</g>
		<g>
			<path style="fill:#C4D7D4;" d="M1731.416,373.171c-3.468,0-6.83-1.367-9.309-3.803c-2.604-2.573-4.046-6.14-3.946-9.806
				l1.044-38.256c0.075-2.685,1.193-5.183,3.151-7.035c1.958-1.84,4.53-2.759,7.203-2.722l109.908,3.468
				c5.929,0.174,10.571,4.971,10.571,10.913v31.669c0,5.891-4.611,10.701-10.496,10.95l0,0l-107.566,4.611
				C1731.789,373.171,1731.603,373.171,1731.416,373.171z M1729.229,315.153c-1.641,0-3.2,0.609-4.4,1.74
				c-1.255,1.181-1.97,2.784-2.02,4.512l-1.044,38.256c-0.075,2.697,0.945,5.232,2.871,7.134c1.827,1.79,4.213,2.772,6.755,2.772
				c0.143,0,0.286,0,0.435-0.013l107.566-4.611c3.946-0.174,7.041-3.393,7.041-7.345v-31.669c0-3.977-3.107-7.184-7.078-7.308
				l-109.908-3.468C1729.372,315.153,1729.303,315.153,1729.229,315.153z M1839.467,366.745h0.044H1839.467z"/>
		</g>
		<path style="opacity:0.4;fill:#C4D7D4;" d="M2086.29,321.528l107.568-4.612c6.634-0.284,12.118,5.115,11.937,11.752l-1.043,38.252
			c-0.124,4.561-3.933,8.152-8.493,8.008l-109.91-3.467c-4.918-0.155-8.824-4.186-8.824-9.106v-31.677
			C2077.525,325.772,2081.39,321.738,2086.29,321.528z"/>
	</g>
	<path style="opacity:0.4;fill:#C4D7D4;" d="M2190.143,628.612l107.568-4.613c6.634-0.284,12.118,5.115,11.937,11.752l-1.043,38.252
		c-0.124,4.561-3.933,8.152-8.493,8.008l-109.91-3.467c-4.918-0.155-8.824-4.187-8.824-9.107V637.76
		C2181.378,632.855,2185.243,628.822,2190.143,628.612z"/>
	<g>
		<g>
			<path style="fill:#C4D7D4;" d="M712.641,1452.829c-3.474,0-6.848-1.38-9.334-3.828c-2.641-2.598-4.039-6.078-3.94-9.794
				l1.044-38.256c0.075-2.697,1.193-5.195,3.151-7.035c1.958-1.852,4.617-2.834,7.196-2.722l109.915,3.468
				c5.922,0.174,10.565,4.972,10.565,10.913v31.669c0,5.891-4.605,10.701-10.49,10.95l0,0l-107.566,4.624
				C713.001,1452.829,712.821,1452.829,712.641,1452.829z M710.429,1394.798c-1.641,0-3.194,0.609-4.394,1.74
				c-1.255,1.181-1.97,2.784-2.02,4.512l-1.044,38.256c-0.075,2.697,0.945,5.233,2.871,7.134c1.926,1.902,4.592,2.921,7.19,2.772
				l107.566-4.624c3.94-0.174,7.035-3.393,7.035-7.345v-31.669c0-3.977-3.107-7.184-7.072-7.308l-109.915-3.468
				C710.572,1394.798,710.503,1394.798,710.429,1394.798z M820.673,1446.391h0.044H820.673z"/>
		</g>
		<path style="opacity:0.4;fill:#C4D7D4;" d="M630.497,1327.204l107.568-4.613c6.634-0.284,12.118,5.115,11.937,11.752
			l-1.042,38.251c-0.124,4.561-3.933,8.152-8.493,8.008l-109.91-3.467c-4.918-0.155-8.824-4.187-8.824-9.107v-31.677
			C621.732,1331.448,625.597,1327.414,630.497,1327.204z"/>
		<path style="opacity:0.4;fill:#C4D7D4;" d="M675.649,1256.792l107.568-4.612c6.634-0.285,12.118,5.115,11.937,11.752
			l-1.043,38.252c-0.124,4.561-3.933,8.152-8.493,8.008l-109.91-3.467c-4.918-0.155-8.824-4.186-8.824-9.106v-31.677
			C666.884,1261.036,670.749,1257.002,675.649,1256.792z"/>
	</g>
	<g>
		<g>
			<path style="fill:#C4D7D4;" d="M712.622,732.017c-3.461,0-6.823-1.367-9.303-3.803c-2.61-2.573-4.052-6.152-3.952-9.819
				l1.044-38.244c0.075-2.685,1.193-5.183,3.145-7.035c1.957-1.852,4.481-2.821,7.202-2.734l109.915,3.468
				c5.929,0.199,10.565,4.984,10.565,10.912v31.681c0,5.891-4.605,10.701-10.49,10.95l0,0l-107.566,4.611
				C712.995,732.017,712.809,732.017,712.622,732.017z M710.447,673.987c-1.647,0-3.213,0.621-4.419,1.753
				c-1.249,1.181-1.964,2.784-2.013,4.512l-1.044,38.244c-0.075,2.709,0.951,5.245,2.877,7.147c1.933,1.889,4.431,3.095,7.184,2.759
				l107.566-4.611c3.94-0.174,7.035-3.393,7.035-7.345v-31.681c0-3.965-3.107-7.184-7.078-7.308l-109.909-3.468
				C710.578,673.987,710.516,673.987,710.447,673.987z M820.673,725.591h0.044H820.673z"/>
		</g>
		<path style="opacity:0.4;fill:#C4D7D4;" d="M630.497,606.395l107.568-4.613c6.634-0.284,12.118,5.115,11.937,11.752l-1.042,38.252
			c-0.124,4.561-3.933,8.152-8.493,8.008l-109.91-3.467c-4.918-0.155-8.824-4.187-8.824-9.107v-31.677
			C621.732,610.639,625.597,606.605,630.497,606.395z"/>
		<path style="opacity:0.4;fill:#C4D7D4;" d="M675.649,535.984l107.568-4.612c6.634-0.284,12.118,5.115,11.937,11.752l-1.043,38.252
			c-0.124,4.561-3.933,8.152-8.493,8.008l-109.91-3.467c-4.918-0.155-8.824-4.186-8.824-9.107v-31.677
			C666.884,540.228,670.749,536.194,675.649,535.984z"/>
	</g>
	<path style="opacity:0.4;fill:#C4D7D4;" d="M566.36,1136.123l107.568-4.613c6.634-0.284,12.118,5.115,11.937,11.752l-1.042,38.252
		c-0.124,4.561-3.933,8.152-8.494,8.008l-109.91-3.467c-4.917-0.155-8.824-4.186-8.824-9.107v-31.677
		C557.595,1140.367,561.46,1136.333,566.36,1136.123z"/>
	<path style="opacity:0.4;fill:#C4D7D4;" d="M630.497,759.357l107.568-4.613c6.634-0.284,12.118,5.115,11.937,11.752l-1.042,38.252
		c-0.124,4.561-3.933,8.152-8.493,8.008l-109.91-3.467c-4.918-0.155-8.824-4.186-8.824-9.107v-31.677
		C621.732,763.601,625.597,759.568,630.497,759.357z"/>
	<g>
		<path style="fill:#B2B279;" d="M2102.576,1515.931c0,0,41.919-157.978,7.018-216.116
			c-34.901-58.138-151.874-66.717-194.893-24.329c-43.019,42.388-48.381,94.139,18.667,116s156.297-57.24,173.023-49.11
			c16.725,8.13-16.603,167.34-16.603,167.34L2102.576,1515.931z"/>
		<g>
			<path style="fill:#C4C695;" d="M1906.737,1350.183l-1.047-1.355c0.324-0.246,32.798-24.807,73.958-43.114
				c24.203-10.766,46.639-17.3,66.685-19.422c25.145-2.665,46.591,1.649,63.734,12.81l-0.944,1.428
				c-16.802-10.941-37.866-15.161-62.609-12.54c-19.865,2.102-42.126,8.589-66.164,19.281
				C1939.373,1325.498,1907.058,1349.938,1906.737,1350.183z"/>
		</g>
		<path style="fill:#81B3CC;" d="M2149.692,1641.276h-88.731c-13.573,0-24.89-8.216-26.055-18.917l-12.799-117.556h162.949
			l-11.594,119.058C2172.504,1633.688,2162.148,1641.276,2149.692,1641.276z"/>
		<path style="fill:#75A8BC;" d="M2190.913,1479.756v23.374c0,14.463-38.745,26.184-86.547,26.184
			c-47.794,0-86.547-11.721-86.547-26.184v-23.374c0-7.342,22.318-13.636,53.957-16.234c10.06-0.837,21.062-1.299,32.59-1.299
			C2152.168,1462.223,2190.913,1470.066,2190.913,1479.756z"/>
		<path style="fill:#060633;" d="M2190.914,1479.759c0,1.408-0.815,2.773-2.361,4.086c-3.853,3.267-12.268,6.197-23.805,8.466
			c-4.498,0.893-9.484,1.691-14.85,2.363c-1.386,0.179-2.805,0.347-4.255,0.494c-0.836,0.105-1.693,0.189-2.551,0.273
			c-4.456,0.462-9.145,0.84-14.004,1.124c-0.339,0.031-0.677,0.053-1.027,0.063c-2.53,0.147-5.102,0.273-7.716,0.368
			c-1.778,0.074-3.577,0.126-5.398,0.179c-0.699,0.01-1.408,0.031-2.117,0.042c-2.784,0.052-5.61,0.084-8.468,0.084
			c-1.228,0-2.445-0.01-3.662-0.021c-0.73,0-1.471-0.01-2.191-0.021c-2.879-0.042-5.726-0.105-8.521-0.21
			c-4.668-0.147-9.219-0.389-13.601-0.693c-0.825-0.063-1.63-0.116-2.445-0.179h-0.011c-0.656-0.052-1.302-0.105-1.948-0.157
			c-0.741-0.063-1.471-0.126-2.202-0.189c-4.805-0.42-9.389-0.935-13.697-1.523c-23.085-3.141-38.263-8.487-38.263-14.548
			c0-3.718,5.716-7.164,15.464-10c5.536-1.607,12.374-3.025,20.206-4.17c0.423-0.074,0.857-0.136,1.292-0.189h0.01
			c0.773-0.116,1.556-0.221,2.35-0.326c4.594-0.609,9.484-1.135,14.628-1.555c0.275-0.021,0.54-0.042,0.815-0.063
			c5.091-0.41,10.426-0.725,15.94-0.924c3.334-0.137,6.743-0.221,10.214-0.263c1.852-0.031,3.736-0.042,5.62-0.042
			c2.964,0,5.885,0.031,8.764,0.094c0.72,0.01,1.429,0.021,2.138,0.042c5.091,0.126,10.045,0.347,14.819,0.651
			c1.291,0.073,2.583,0.168,3.853,0.263c4.075,0.294,8.002,0.651,11.77,1.071c5.398,0.588,10.458,1.302,15.083,2.111
			c0.783,0.137,1.556,0.273,2.307,0.42c0.519,0.095,1.037,0.189,1.545,0.294c7.663,1.502,13.961,3.298,18.46,5.294
			C2188.119,1474.686,2190.914,1477.154,2190.914,1479.759z"/>
		<path style="fill:#C4C48A;" d="M2101.248,1520.747c0,0,32.376-160.173,89.489-197.149c57.112-36.977,165.964,6.38,185.809,63.225
			c19.846,56.845,1.723,105.662-68.18,96.027c-69.902-9.635-114.993-119.632-133.617-119.632
			c-18.624,0-59.261,157.529-59.261,157.529H2101.248z"/>
		<g>
			<path style="fill:#CFD3A3;" d="M2335.544,1473.346c-0.18-0.361-18.383-36.439-47.11-70.695
				c-16.846-20.089-33.96-35.627-50.866-46.182c-21.054-13.147-41.837-18.551-61.771-16.06l-0.215-1.694
				c20.341-2.542,41.511,2.95,62.916,16.317c17.062,10.656,34.314,26.318,51.279,46.551c28.849,34.408,47.127,70.642,47.308,71.004
				L2335.544,1473.346z"/>
		</g>
		<path style="fill:#9BBCB6;" d="M2098.138,1564.558c0,0,0.863-163.361-47.555-211.015c-48.417-47.654-163.846-26.99-194.844,24.711
			c-30.997,51.701-23.175,103.142,47.249,107.706c70.423,4.563,136.956-94.14,155.197-90.41
			c18.241,3.73,26.007,166.156,26.007,166.156L2098.138,1564.558z"/>
		<g>
			<path style="fill:#B0D6CE;" d="M1866.804,1452.568l-1.342-1.069c0.249-0.311,25.523-32.141,60.771-60.069
				c59.136-46.807,100.425-46.869,124.624-38.691l-0.547,1.616c-23.801-8.017-64.481-7.917-122.984,38.405
				C1892.221,1420.551,1867.059,1452.245,1866.804,1452.568z"/>
		</g>
		<path style="fill:#CFD3A3;" d="M2197.926,1439.754c0,0-19.644-35.423-64.024-33.83c-44.38,1.593-87.244,134.045-70.764,171.215
			c25.237,56.92,111.099,63.602,146.281,0C2227.026,1545.309,2219.721,1469.145,2197.926,1439.754z"/>
		<g>
			<path style="fill:#C4C695;" d="M2134.529,1585.284l-1.684-0.352c0.193-0.912,19.196-92.035,9.09-160.655l1.703-0.248
				C2153.789,1492.954,2134.723,1584.369,2134.529,1585.284z"/>
		</g>
	</g>
	<g>
		<path style="fill:#2F1A31;" d="M1361.223,955.985c-0.025,0-0.044,0-0.068,0c-42.774-4.139-79.383-70.037-79.75-70.708
			c-0.186-0.336-0.062-0.758,0.28-0.945c0.329-0.211,0.758-0.075,0.951,0.273c0.36,0.659,36.622,65.923,78.656,69.987
			c0.385,0.037,0.665,0.373,0.628,0.758C1361.887,955.724,1361.583,955.985,1361.223,955.985z"/>
	</g>
	<path style="fill:#A584AD;" d="M1316.219,530.85c1.7-3.816,13.087-73.354,0-78.963c-13.088-5.609-99.967-6.544-100.931,5.609
		c-0.964,12.153,56.97,28.243,69.135,42.166C1296.588,513.585,1310.61,543.44,1316.219,530.85z"/>
	<path style="fill:#7A5582;" d="M2077.525,517.485c0,0,5.246-68.405-5.972-69.573c-11.218-1.168-151.441-12.855-147.234,0
		c4.207,12.855,114.516,37.826,124.798,51.749C2059.401,513.585,2076.937,527.088,2077.525,517.485z"/>
	<rect x="1745.776" y="431.495" style="fill:#8C6793;" width="15.295" height="1176.211"/>
	<g>
		<rect x="1407.597" y="1324.566" style="fill:#2F1A31;" width="93.248" height="4.257"/>
		<rect x="1407.597" y="1338.119" style="fill:#2F1A31;" width="93.248" height="4.257"/>
		<rect x="1407.597" y="1351.672" style="fill:#2F1A31;" width="93.248" height="4.257"/>
	</g>
	<g>
		<rect x="1407.597" y="1508.534" style="fill:#2F1A31;" width="93.248" height="4.257"/>
		<rect x="1407.597" y="1522.087" style="fill:#2F1A31;" width="93.248" height="4.257"/>
		<rect x="1407.597" y="1535.64" style="fill:#2F1A31;" width="93.248" height="4.257"/>
	</g>
	<g>
		<rect x="1407.597" y="1144.832" style="fill:#2F1A31;" width="93.248" height="4.257"/>
		<rect x="1407.597" y="1158.385" style="fill:#2F1A31;" width="93.248" height="4.257"/>
		<rect x="1407.597" y="1171.938" style="fill:#2F1A31;" width="93.248" height="4.257"/>
	</g>
</g>
</svg>
